<svg xmlns="http://www.w3.org/2000/svg" viewBox="0 0 64 64"><g id="expanded_icons" data-name="expanded icons"><path d="M32,50.01A18.01,18.01,0,1,1,50.01,32,18.03,18.03,0,0,1,32,50.01Zm0-34.02A16.01,16.01,0,1,0,48.01,32,16.0282,16.0282,0,0,0,32,15.99Z"/><path d="M34.9487,12.686a1.0006,1.0006,0,0,1-.956-.7089L32,5.4331l-1.9927,6.544a1,1,0,0,1-1.9131-.5831l2.9493-9.6855a1,1,0,0,1,1.913,0l2.9493,9.6855a1.0014,1.0014,0,0,1-.9571,1.292Z"/><path d="M19.2876,16.8818a1,1,0,0,1-.9731-.7739L16.0259,6.2451a1,1,0,0,1,1.6567-.9565l7.397,6.9135a1,1,0,0,1-1.3652,1.461L18.7163,8.9922l1.5464,6.6636a1,1,0,0,1-.7481,1.2A1.0129,1.0129,0,0,1,19.2876,16.8818Z"/><path d="M12.9326,25.397a.9961.9961,0,0,1-.7305-.3174l-6.9135-7.397a1,1,0,0,1,.9565-1.6567l9.8628,2.2886a1,1,0,1,1-.4521,1.9482L8.9922,18.7163l4.6709,4.9981a1,1,0,0,1-.73,1.6826Z"/><path d="M11.686,35.95a.9979.9979,0,0,1-.292-.0439L1.7085,32.9565a1,1,0,0,1,0-1.913l9.6855-2.9493a1,1,0,0,1,.5831,1.9131L5.4331,32l6.544,1.9927a1,1,0,0,1-.2911,1.957Z"/><path d="M6.019,48a1,1,0,0,1-.73-1.6826l6.9135-7.397a1,1,0,0,1,1.461,1.3652L8.9922,45.2837l6.6636-1.5464a1,1,0,1,1,.4521,1.9482L6.2451,47.9741A.9931.9931,0,0,1,6.019,48Z"/><path d="M17,58.981a1,1,0,0,1-.9736-1.2261l2.2886-9.8628a1,1,0,1,1,1.9482.4521l-1.5464,6.6636,4.9981-4.6709a1,1,0,0,1,1.3652,1.461l-7.397,6.9135A.9975.9975,0,0,1,17,58.981Z"/><path d="M32,63a1,1,0,0,1-.9565-.7085L28.0942,52.606a1,1,0,0,1,1.9131-.5831L32,58.5669l1.9927-6.544a1,1,0,0,1,1.9131.5831l-2.9493,9.6855A1,1,0,0,1,32,63Z"/><path d="M47.0005,58.981a.9975.9975,0,0,1-.6831-.27L38.92,51.7979a1,1,0,0,1,1.3652-1.461l4.9981,4.6709-1.5464-6.6636a1,1,0,1,1,1.9482-.4521l2.2886,9.8628a1,1,0,0,1-.9736,1.2261Z"/><path d="M57.981,48a.9931.9931,0,0,1-.2261-.0259l-9.8628-2.2886a1,1,0,1,1,.4521-1.9482l6.6636,1.5464-4.6709-4.9981a1,1,0,0,1,1.461-1.3652l6.9135,7.397A1,1,0,0,1,57.981,48Z"/><path d="M52.314,35.95a1,1,0,0,1-.2911-1.957L58.5669,32l-6.544-1.9927a1,1,0,0,1,.5831-1.9131l9.6855,2.9493a1,1,0,0,1,0,1.913L52.606,35.9058A.9979.9979,0,0,1,52.314,35.95Z"/><path d="M51.0674,25.397a1,1,0,0,1-.73-1.6826l4.6709-4.9981-6.6636,1.5464a1,1,0,1,1-.4521-1.9482l9.8628-2.2886a1,1,0,0,1,.9565,1.6567L51.7979,25.08A.9961.9961,0,0,1,51.0674,25.397Z"/><path d="M44.7124,16.8818a1,1,0,0,1-.9751-1.226l1.5464-6.6636-4.9981,4.6709a1,1,0,0,1-1.3652-1.461l7.397-6.9135a1,1,0,0,1,1.6567.9565l-2.2886,9.8628A1,1,0,0,1,44.7124,16.8818Z"/></g></svg>